<svg xmlns="http://www.w3.org/2000/svg" width="38" height="62" viewBox="0 0 38 62" fill="none"><g clip-path="url(#clip0_2963_75)">
<path d="M26.5999 52.7288C26.5999 51.8733 26.094 51.8469 24.0207 52.6039C21.0495 53.6877 16.7294 53.7069 13.8794 52.6495C5.64766 49.6 5.01116 37.1375 12.8985 33.4319C16.2924 31.8363 19.9903 31.8002 25.9682 33.3046C26.645 33.4752 26.645 33.4752 26.5619 29.8873C26.4455 24.7832 25.8969 23.7931 22.5624 22.6732C21.3227 22.2575 19.8169 21.6711 19.2208 21.3732C17.5749 20.5513 15.7604 20.8108 13.2904 22.2263C11.0912 23.4855 10.4214 23.5912 10.2599 22.6997C10.0557 21.563 12.3428 20.0659 15.7889 19.083C17.6842 18.5423 17.6842 18.5423 22.256 12.4553C27.329 5.70254 27.6235 5.38293 28.0558 6.16153C28.3384 6.66858 27.7827 14.1446 27.0227 20.0755C26.7448 22.2503 26.7448 22.2503 27.6829 24.4011C28.6187 26.5542 28.6187 26.5542 28.6947 39.531C28.7754 53.517 28.7588 53.8991 28.0938 54.2908C27.8492 54.4326 27.5737 54.5504 27.481 54.5504C27.3884 54.5504 27.1533 54.2187 26.9562 53.8102C26.7614 53.4041 26.5999 52.9163 26.5999 52.7288ZM26.0157 49.3741C26.9965 48.4177 26.9467 36.4358 25.961 35.6067C23.7594 33.7563 16.6487 33.5977 13.4543 35.328C8.27204 38.1348 7.81603 46.5841 12.6705 49.8571C13.4733 50.4002 14.7985 51.0298 15.6155 51.2557C16.6843 51.5513 17.7483 51.6426 19.4155 51.5825C21.9639 51.4912 24.8305 50.5324 26.0157 49.3741ZM25.8755 20.5032C26.208 18.6841 26.2223 18.7442 25.4195 18.7442C24.4553 18.7442 22.6479 18.1146 21.4343 17.3552C20.4249 16.7256 20.4249 16.7256 19.5414 18.0016C18.6579 19.2777 18.6579 19.2777 19.4535 19.9962C19.8905 20.3927 20.8239 20.9742 21.5245 21.2915C22.408 21.6904 23.2345 21.8682 24.213 21.8682C25.6262 21.8682 25.6262 21.8682 25.8755 20.5032ZM26.5975 14.3609C26.5999 14.2624 26.0394 13.9788 25.353 13.7265C24.6667 13.4766 23.9304 13.1978 23.7167 13.1089C23.2013 12.8926 21.2324 15.375 21.4533 15.9614C21.5364 16.1801 22.1943 16.6246 22.9139 16.9515C23.6359 17.2759 24.65 17.5426 25.1702 17.5426C26.0869 17.5426 26.5762 16.4516 26.5975 14.3609ZM27.0155 9.15339C26.9562 8.09362 26.9562 8.09362 25.5905 9.90076C24.84 10.8956 24.2249 11.8088 24.2249 11.9314C24.2249 12.0539 24.6002 12.3399 25.0562 12.5658C25.5145 12.7917 26.0204 12.9455 26.1843 12.9094C26.5762 12.8181 27.0915 10.4919 27.0155 9.15339Z" fill="#02B5A0"></path>
</g><defs>
<clipPath id="clip0_2963_75">
<rect width="38" height="62" fill="white"></rect>
</clipPath>
</defs></svg>