<svg width="179" height="62" viewBox="0 0 179 62" fill="none" xmlns="http://www.w3.org/2000/svg">
<g clip-path="url(#clip0_2963_67)">
<g clip-path="url(#clip1_2963_67)">
<path d="M26.5999 52.7288C26.5999 51.8733 26.094 51.8469 24.0207 52.6039C21.0495 53.6877 16.7294 53.7069 13.8794 52.6495C5.64766 49.6 5.01116 37.1375 12.8985 33.4319C16.2924 31.8363 19.9903 31.8002 25.9682 33.3046C26.645 33.4752 26.645 33.4752 26.5619 29.8873C26.4455 24.7832 25.8969 23.7931 22.5624 22.6732C21.3227 22.2575 19.8169 21.6711 19.2208 21.3732C17.5749 20.5513 15.7604 20.8108 13.2904 22.2263C11.0912 23.4855 10.4214 23.5912 10.2599 22.6997C10.0557 21.563 12.3428 20.0659 15.7889 19.083C17.6842 18.5423 17.6842 18.5423 22.256 12.4553C27.329 5.70254 27.6235 5.38293 28.0558 6.16153C28.3384 6.66858 27.7827 14.1446 27.0227 20.0755C26.7448 22.2503 26.7448 22.2503 27.6829 24.4011C28.6187 26.5542 28.6187 26.5542 28.6947 39.531C28.7754 53.517 28.7588 53.8991 28.0938 54.2908C27.8492 54.4326 27.5737 54.5504 27.481 54.5504C27.3884 54.5504 27.1533 54.2187 26.9562 53.8102C26.7614 53.4041 26.5999 52.9163 26.5999 52.7288ZM26.0157 49.3741C26.9965 48.4177 26.9467 36.4358 25.961 35.6067C23.7594 33.7563 16.6487 33.5977 13.4543 35.328C8.27204 38.1348 7.81603 46.5841 12.6705 49.8571C13.4733 50.4002 14.7985 51.0298 15.6155 51.2557C16.6843 51.5513 17.7483 51.6426 19.4155 51.5825C21.9639 51.4912 24.8305 50.5324 26.0157 49.3741ZM25.8755 20.5032C26.208 18.6841 26.2223 18.7442 25.4195 18.7442C24.4553 18.7442 22.6479 18.1146 21.4343 17.3552C20.4249 16.7256 20.4249 16.7256 19.5414 18.0016C18.6579 19.2777 18.6579 19.2777 19.4535 19.9962C19.8905 20.3927 20.8239 20.9742 21.5245 21.2915C22.408 21.6904 23.2345 21.8682 24.213 21.8682C25.6262 21.8682 25.6262 21.8682 25.8755 20.5032ZM26.5975 14.3609C26.5999 14.2624 26.0394 13.9788 25.353 13.7265C24.6667 13.4766 23.9304 13.1978 23.7167 13.1089C23.2013 12.8926 21.2324 15.375 21.4533 15.9614C21.5364 16.1801 22.1943 16.6246 22.9139 16.9515C23.6359 17.2759 24.65 17.5426 25.1702 17.5426C26.0869 17.5426 26.5762 16.4516 26.5975 14.3609ZM27.0155 9.15339C26.9562 8.09362 26.9562 8.09362 25.5905 9.90076C24.84 10.8956 24.2249 11.8088 24.2249 11.9314C24.2249 12.0539 24.6002 12.3399 25.0562 12.5658C25.5145 12.7917 26.0204 12.9455 26.1843 12.9094C26.5762 12.8181 27.0915 10.4919 27.0155 9.15339Z" fill="#02B5A0"/>
</g>
<path d="M53.174 24.59C53.1567 24.642 53.1653 24.694 53.2 24.746C53.2347 24.7807 53.278 24.798 53.33 24.798H59.44C59.492 24.798 59.5267 24.7807 59.544 24.746C59.5787 24.694 59.596 24.642 59.596 24.59L56.424 14.918C56.424 14.9007 56.4153 14.892 56.398 14.892C56.3633 14.892 56.346 14.9007 56.346 14.918L53.174 24.59ZM49.664 32C49.404 32 49.196 31.896 49.04 31.688C48.884 31.4627 48.8493 31.2287 48.936 30.986L54.864 14.112C54.9853 13.7827 55.1847 13.5227 55.462 13.332C55.7567 13.124 56.0773 13.02 56.424 13.02C56.7707 13.02 57.0827 13.124 57.36 13.332C57.6547 13.5227 57.8627 13.7827 57.984 14.112L63.886 30.96C63.9727 31.22 63.938 31.4627 63.782 31.688C63.626 31.896 63.418 32 63.158 32C62.8113 32 62.4993 31.9047 62.222 31.714C61.962 31.506 61.78 31.246 61.676 30.934L60.298 26.67C60.246 26.5313 60.142 26.462 59.986 26.462H52.784C52.6453 26.462 52.55 26.5313 52.498 26.67L51.068 30.986C50.964 31.298 50.782 31.5493 50.522 31.74C50.2793 31.9133 49.9933 32 49.664 32ZM67.4915 25.37C67.2661 25.37 67.0755 25.292 66.9195 25.136C66.7635 24.9627 66.6855 24.7633 66.6855 24.538C66.6855 24.3127 66.7635 24.122 66.9195 23.966C67.0755 23.81 67.2661 23.732 67.4915 23.732H73.8355C74.0608 23.732 74.2515 23.81 74.4075 23.966C74.5635 24.122 74.6415 24.3127 74.6415 24.538C74.6415 24.7633 74.5635 24.9627 74.4075 25.136C74.2515 25.292 74.0608 25.37 73.8355 25.37H67.4915ZM86.0248 32.26C83.5288 32.26 81.5268 31.4107 80.0188 29.712C78.5108 27.996 77.7568 25.5953 77.7568 22.51C77.7568 19.442 78.4761 17.05 79.9148 15.334C81.3708 13.618 83.3815 12.76 85.9468 12.76C87.2988 12.76 88.5035 12.89 89.5608 13.15C89.8208 13.2193 90.0288 13.3667 90.1848 13.592C90.3581 13.8173 90.4448 14.0687 90.4448 14.346C90.4448 14.5713 90.3495 14.7533 90.1588 14.892C89.9855 15.0133 89.7861 15.0393 89.5608 14.97C88.5381 14.658 87.3941 14.502 86.1288 14.502C84.1701 14.502 82.6361 15.204 81.5268 16.608C80.4175 18.012 79.8628 19.9793 79.8628 22.51C79.8628 25.0233 80.4348 26.9907 81.5788 28.412C82.7401 29.816 84.2828 30.518 86.2068 30.518C87.4895 30.518 88.6508 30.362 89.6908 30.05C89.9161 29.9807 90.1155 30.0153 90.2888 30.154C90.4795 30.2753 90.5748 30.4487 90.5748 30.674C90.5748 30.9513 90.4881 31.2027 90.3148 31.428C90.1588 31.636 89.9508 31.7747 89.6908 31.844C88.5295 32.1213 87.3075 32.26 86.0248 32.26ZM95.1061 14.788C94.8634 14.788 94.6554 14.7013 94.4821 14.528C94.3088 14.3547 94.2221 14.1467 94.2221 13.904C94.2221 13.6613 94.3088 13.4533 94.4821 13.28C94.6554 13.1067 94.8634 13.02 95.1061 13.02H106.702C106.945 13.02 107.153 13.1067 107.326 13.28C107.499 13.4533 107.586 13.6613 107.586 13.904C107.586 14.1467 107.499 14.3547 107.326 14.528C107.153 14.7013 106.945 14.788 106.702 14.788H102.178C102.022 14.788 101.944 14.8573 101.944 14.996V30.96C101.944 31.2373 101.84 31.48 101.632 31.688C101.441 31.896 101.199 32 100.904 32C100.609 32 100.358 31.896 100.15 31.688C99.9594 31.48 99.8641 31.2373 99.8641 30.96V14.996C99.8641 14.8573 99.7948 14.788 99.6561 14.788H95.1061ZM124.117 13.02C124.394 13.02 124.602 13.1413 124.741 13.384C124.897 13.6093 124.914 13.8433 124.793 14.086L119.021 26.358C118.033 28.438 116.949 29.92 115.771 30.804C114.592 31.6707 113.015 32.1473 111.039 32.234C110.813 32.2513 110.614 32.1733 110.441 32C110.267 31.844 110.181 31.6447 110.181 31.402C110.181 31.1767 110.259 30.9773 110.415 30.804C110.588 30.6307 110.796 30.5353 111.039 30.518C112.46 30.4487 113.569 30.1453 114.367 29.608C115.164 29.0533 115.892 28.1 116.551 26.748C116.603 26.6093 116.603 26.4707 116.551 26.332L110.493 14.112C110.354 13.8693 110.363 13.6267 110.519 13.384C110.675 13.1413 110.891 13.02 111.169 13.02C111.533 13.02 111.871 13.124 112.183 13.332C112.512 13.5227 112.755 13.7827 112.911 14.112L117.721 24.512C117.721 24.5293 117.729 24.538 117.747 24.538C117.781 24.538 117.799 24.5293 117.799 24.512L122.453 14.086C122.765 13.3753 123.319 13.02 124.117 13.02ZM130.793 30.076C130.758 30.1107 130.749 30.154 130.767 30.206C130.801 30.2407 130.845 30.258 130.897 30.258H139.165C139.303 30.258 139.373 30.1887 139.373 30.05V14.97C139.373 14.8313 139.303 14.762 139.165 14.762H132.847C132.691 14.762 132.613 14.8313 132.613 14.97C132.613 19.0607 132.578 21.886 132.509 23.446C132.439 25.006 132.292 26.2367 132.067 27.138C131.841 28.0393 131.417 29.0187 130.793 30.076ZM128.427 35.874C128.236 36.0647 128.011 36.16 127.751 36.16C127.491 36.16 127.265 36.0647 127.075 35.874C126.901 35.6833 126.815 35.458 126.815 35.198V31.558C126.815 31.2113 126.936 30.908 127.179 30.648C127.439 30.388 127.742 30.258 128.089 30.258C128.227 30.258 128.323 30.2147 128.375 30.128C129.12 29.0533 129.623 28.0827 129.883 27.216C130.16 26.3493 130.342 25.0927 130.429 23.446C130.533 21.782 130.585 18.8873 130.585 14.762V14.502C130.585 14.1033 130.723 13.7567 131.001 13.462C131.295 13.1673 131.642 13.02 132.041 13.02H139.971C140.369 13.02 140.716 13.1673 141.011 13.462C141.305 13.7567 141.453 14.1033 141.453 14.502V30.05C141.453 30.1887 141.531 30.258 141.687 30.258H142.155C142.553 30.258 142.891 30.4053 143.169 30.7C143.463 30.9947 143.611 31.3413 143.611 31.74V35.198C143.611 35.458 143.515 35.6833 143.325 35.874C143.151 36.0647 142.935 36.16 142.675 36.16C142.415 36.16 142.189 36.0647 141.999 35.874C141.808 35.6833 141.713 35.458 141.713 35.198V32.208C141.713 32.0693 141.643 32 141.505 32H128.947C128.791 32 128.713 32.0693 128.713 32.208V35.198C128.713 35.458 128.617 35.6833 128.427 35.874ZM148.065 32C147.77 32 147.519 31.896 147.311 31.688C147.103 31.48 146.999 31.2287 146.999 30.934V14.034C146.999 13.7393 147.094 13.4967 147.285 13.306C147.493 13.1153 147.736 13.02 148.013 13.02C148.29 13.02 148.524 13.1153 148.715 13.306C148.923 13.4967 149.027 13.7393 149.027 14.034V28.594C149.027 28.6113 149.036 28.62 149.053 28.62C149.088 28.62 149.105 28.6113 149.105 28.594L157.737 13.956C158.101 13.332 158.638 13.02 159.349 13.02C159.644 13.02 159.895 13.124 160.103 13.332C160.311 13.54 160.415 13.7913 160.415 14.086V30.986C160.415 31.2807 160.311 31.5233 160.103 31.714C159.912 31.9047 159.678 32 159.401 32C159.124 32 158.881 31.9047 158.673 31.714C158.482 31.5233 158.387 31.2807 158.387 30.986V16.426C158.387 16.4087 158.378 16.4 158.361 16.4C158.326 16.4 158.309 16.4087 158.309 16.426L149.677 31.064C149.313 31.688 148.776 32 148.065 32ZM174.235 21.834V14.918C174.235 14.7793 174.157 14.6927 174.001 14.658C173.204 14.5193 172.415 14.45 171.635 14.45C169.746 14.45 168.359 14.7533 167.475 15.36C166.591 15.9667 166.149 16.8767 166.149 18.09C166.149 19.4073 166.635 20.404 167.605 21.08C168.576 21.7387 170.093 22.068 172.155 22.068H174.001C174.157 22.068 174.235 21.99 174.235 21.834ZM171.453 12.76C172.701 12.76 173.837 12.8207 174.859 12.942C175.275 12.994 175.622 13.1847 175.899 13.514C176.177 13.826 176.315 14.1987 176.315 14.632V30.96C176.315 31.2373 176.211 31.48 176.003 31.688C175.813 31.896 175.57 32 175.275 32C174.998 32 174.755 31.896 174.547 31.688C174.339 31.48 174.235 31.2373 174.235 30.96V23.94C174.235 23.8013 174.157 23.732 174.001 23.732H172.155C171.566 23.732 171.107 23.7493 170.777 23.784C170.448 23.8187 170.136 23.888 169.841 23.992C169.547 24.0787 169.304 24.2347 169.113 24.46C168.923 24.6853 168.741 24.954 168.567 25.266C168.394 25.5607 168.195 25.9767 167.969 26.514L166.149 30.986C166.045 31.2807 165.855 31.5233 165.577 31.714C165.3 31.9047 164.997 32 164.667 32C164.407 32 164.199 31.8873 164.043 31.662C163.905 31.4367 163.887 31.2113 163.991 30.986L165.863 26.462C166.297 25.4567 166.687 24.7027 167.033 24.2C167.38 23.68 167.753 23.3073 168.151 23.082C168.169 23.082 168.177 23.0733 168.177 23.056C168.177 23.0213 168.169 23.004 168.151 23.004C166.851 22.6747 165.846 22.0767 165.135 21.21C164.442 20.326 164.095 19.2253 164.095 17.908C164.095 16.2613 164.711 14.996 165.941 14.112C167.189 13.2107 169.027 12.76 171.453 12.76Z" fill="black"/>
<path d="M49.7908 48.868C49.7028 48.956 49.5948 49 49.4668 49C49.3388 49 49.2308 48.956 49.1428 48.868C49.0548 48.78 49.0108 48.672 49.0108 48.544V40.456C49.0108 40.328 49.0548 40.22 49.1428 40.132C49.2308 40.044 49.3388 40 49.4668 40C49.5948 40 49.7028 40.044 49.7908 40.132C49.8788 40.22 49.9228 40.328 49.9228 40.456V45.532C49.9228 45.54 49.9268 45.544 49.9348 45.544L49.9588 45.532L52.5508 43.144C52.8228 42.888 53.1508 42.76 53.5348 42.76C53.6388 42.76 53.7068 42.808 53.7388 42.904C53.7788 43 53.7628 43.08 53.6908 43.144L50.9068 45.688C50.8588 45.736 50.8548 45.784 50.8948 45.832L53.7268 48.604C53.7908 48.668 53.8028 48.752 53.7628 48.856C53.7228 48.952 53.6548 49 53.5588 49C53.1828 49 52.8628 48.868 52.5988 48.604L49.9588 45.988C49.9508 45.98 49.9428 45.976 49.9348 45.976C49.9268 45.976 49.9228 45.98 49.9228 45.988V48.544C49.9228 48.672 49.8788 48.78 49.7908 48.868ZM56.528 48.856C56.44 48.952 56.328 49 56.192 49C56.056 49 55.94 48.952 55.844 48.856C55.756 48.76 55.712 48.648 55.712 48.52V43.24C55.712 43.112 55.756 43 55.844 42.904C55.94 42.808 56.056 42.76 56.192 42.76C56.328 42.76 56.44 42.808 56.528 42.904C56.624 43 56.672 43.112 56.672 43.24V48.52C56.672 48.648 56.624 48.76 56.528 48.856ZM56.528 41.152C56.44 41.24 56.328 41.284 56.192 41.284C56.056 41.284 55.94 41.24 55.844 41.152C55.756 41.056 55.712 40.94 55.712 40.804V40.48C55.712 40.352 55.756 40.24 55.844 40.144C55.94 40.048 56.056 40 56.192 40C56.328 40 56.44 40.048 56.528 40.144C56.624 40.24 56.672 40.352 56.672 40.48V40.804C56.672 40.94 56.624 41.056 56.528 41.152ZM61.2989 43.36C60.0989 43.36 59.4989 44.2 59.4989 45.88C59.4989 46.712 59.6549 47.34 59.9669 47.764C60.2869 48.188 60.7309 48.4 61.2989 48.4C61.7629 48.4 62.1789 48.24 62.5469 47.92C62.9149 47.592 63.0989 47.22 63.0989 46.804V44.956C63.0989 44.548 62.9149 44.18 62.5469 43.852C62.1869 43.524 61.7709 43.36 61.2989 43.36ZM61.1069 49.12C60.3629 49.12 59.7549 48.832 59.2829 48.256C58.8189 47.672 58.5869 46.88 58.5869 45.88C58.5869 44.848 58.8109 44.052 59.2589 43.492C59.7149 42.924 60.3309 42.64 61.1069 42.64C61.8909 42.64 62.5429 42.948 63.0629 43.564C63.0709 43.572 63.0789 43.576 63.0869 43.576C63.0949 43.576 63.0989 43.572 63.0989 43.564V40.456C63.0989 40.328 63.1429 40.22 63.2309 40.132C63.3269 40.044 63.4389 40 63.5669 40C63.6949 40 63.8029 40.044 63.8909 40.132C63.9789 40.22 64.0229 40.328 64.0229 40.456V48.568C64.0229 48.688 63.9789 48.792 63.8909 48.88C63.8109 48.96 63.7109 49 63.5909 49C63.4709 49 63.3669 48.96 63.2789 48.88C63.1909 48.792 63.1469 48.688 63.1469 48.568V48.124C63.1469 48.116 63.1429 48.112 63.1349 48.112C63.1269 48.112 63.1189 48.116 63.1109 48.124C62.5749 48.788 61.9069 49.12 61.1069 49.12ZM67.8644 46.204C67.0884 46.02 66.5324 45.784 66.1964 45.496C65.8684 45.2 65.7044 44.82 65.7044 44.356C65.7044 43.828 65.9004 43.412 66.2924 43.108C66.6924 42.796 67.2604 42.64 67.9964 42.64C68.5484 42.64 69.0964 42.712 69.6404 42.856C69.8884 42.92 70.0124 43.084 70.0124 43.348C70.0124 43.444 69.9764 43.516 69.9044 43.564C69.8324 43.612 69.7484 43.624 69.6524 43.6C69.1244 43.44 68.5964 43.36 68.0684 43.36C67.1084 43.36 66.6284 43.668 66.6284 44.284C66.6284 44.556 66.7244 44.784 66.9164 44.968C67.1084 45.144 67.4564 45.288 67.9604 45.4C68.8244 45.592 69.4164 45.836 69.7364 46.132C70.0644 46.428 70.2284 46.852 70.2284 47.404C70.2284 47.94 70.0204 48.36 69.6044 48.664C69.1964 48.968 68.6164 49.12 67.8644 49.12C67.2804 49.12 66.7244 49.032 66.1964 48.856C65.9484 48.776 65.8244 48.604 65.8244 48.34C65.8244 48.252 65.8644 48.184 65.9444 48.136C66.0244 48.08 66.1084 48.068 66.1964 48.1C66.7164 48.3 67.2484 48.4 67.7924 48.4C68.8004 48.4 69.3044 48.068 69.3044 47.404C69.3044 47.116 69.2004 46.876 68.9924 46.684C68.7924 46.492 68.4164 46.332 67.8644 46.204Z" fill="#02B5A0"/>
</g>
<defs>
<clipPath id="clip0_2963_67">
<rect width="179" height="62" fill="white"/>
</clipPath>
<clipPath id="clip1_2963_67">
<rect width="38" height="62" fill="white"/>
</clipPath>
</defs>
</svg>
