<?xml version="1.0" standalone="no"?> 
<!DOCTYPE svg PUBLIC "-//W3C//DTD SVG 1.1//EN" "http://www.w3.org/Graphics/SVG/1.1/DTD/svg11.dtd" >
<svg xmlns="http://www.w3.org/2000/svg">
<defs>
  <font id="icomoon" horiz-adv-x="1654">
    <font-face font-family="icomoon"
      units-per-em="1024" ascent="960"
      descent="64" />
    <missing-glyph horiz-adv-x="0" />
    <glyph glyph-name="basket"
      unicode="&#xF101;"
      horiz-adv-x="950.8571428571428" d=" M474.170514286 106.397257143C452.256914286 106.397257143 435.499885714 123.154285714 435.499885714 145.067885714V602.688365714C435.499885714 624.603428571 452.256914286 641.35936 474.170514286 641.35936C496.084114286 641.35936 512.841142857 624.601234286 512.841142857 602.688365714V145.071542857C512.841142857 123.154285714 496.084114286 106.397257143 474.170514286 106.397257143z M606.957714286 106.3936H605.6704C583.753142857 107.684571429 568.287085714 125.732571429 568.287085714 146.3552L585.044114286 603.976045714C586.331428571 625.891108571 604.379428571 642.64704 625.005714286 641.358994286C646.919314286 640.070948571 662.389028571 622.022217143 662.389028571 601.39776L645.628342857 143.776914286C644.341028571 123.154285714 627.580342857 106.3936 606.957714286 106.3936z M341.355885714 106.3936C320.731062857 106.3936 303.972937143 123.154285714 302.684891429 143.776914286L285.926765714 601.39776C284.63872 623.312822857 301.394651429 640.068754286 323.309714286 641.358994286C345.224411429 642.64704 361.980342857 625.891108571 363.270948571 603.976045714L380.028342857 146.3552C381.315657143 124.4416 364.561188571 107.684571429 342.646125714 106.3936H341.355885714z M908.576914286 793.470171429H817.053257143C817.053257143 793.470171429 817.053257143 793.470171429 815.765942857 793.470171429H664.941714286V877.261897143C664.941714286 913.354605714 636.584228571 941.714285714 600.488228571 941.714285714H347.831954286C311.737051429 941.714285714 283.379565714 913.354605714 283.379565714 877.261897143V793.472731429H129.97888H39.742537143C17.827291429 793.472731429 1.071429486 776.71424 1.071429486 754.801737143C1.071429486 732.889234286 17.829741714 716.130742857 39.742537143 716.130742857H95.171657143L159.626605714 -10.909257143C160.914651429 -30.244571429 177.672777143 -45.714285714 198.2976 -45.714285714H751.3088C771.935085714 -45.714285714 788.692114286 -30.244571429 789.979428571 -10.909257143L854.432914286 716.125988571H911.151542857C933.0688 716.125988571 949.822171429 732.884114286 949.822171429 754.796982857C949.822171429 776.709485714 930.490514286 793.470171429 908.576914286 793.470171429zM360.721554286 864.369737143H587.5968V793.470171429H360.721554286V864.369737143zM715.216457143 31.630628571H231.814217143L171.22816 716.125988571H773.226057143L715.216457143 31.630628571z" />
    <glyph glyph-name="close"
      unicode="&#xF102;"
      horiz-adv-x="1024" d=" M102.392685714 703.971474286L255.992685714 857.571474286L921.592685714 191.970742857L767.992685714 38.370742857L102.392685714 703.971474286z M768.007314286 857.571474286L921.607314286 703.971474286L255.992685714 38.370742857L102.392685714 191.970742857L768.007314286 857.571474286z" />
    <glyph glyph-name="disabled-sign"
      unicode="&#xF103;"
      horiz-adv-x="799" d=" M239.805 540.39H301.268V440.817C347.982 430.982 389.774 408.244 424.195 376.897V576.652C424.195 680.94 296.874 733.28 223.206 659.628L116.878 553.299V325.267H239.805V540.389z M362.731 755.512C413.566 755.512 454.926 796.872 454.926 847.707S413.566 939.902 362.731 939.902C311.896 939.902 270.536 898.542 270.536 847.707S311.896 755.512 362.731 755.512z M239.805 -47.609C358.61 -47.609 454.926 52.803 454.926 171.609C454.926 268.901 389.919 350.165 301.269 376.744V263.804H44.131C30.75 235.769 22.635 204.749 22.635 171.609C22.635 52.803 121 -47.609 239.806 -47.609z M468.91 325.267C493.311 289.167 508.923 247.351 513.911 202.342H595.022L676.348 -47.609L792.977 -8.747L683.616 325.267H468.911z" />
    <glyph glyph-name="edit-patient"
      unicode="&#xF104;"
      horiz-adv-x="1024" d=" M956.145664 737.9296256H867.315712C857.096192 737.9296256 848.809984 729.6454656 848.809984 719.423488C848.809984 709.2015104 857.096192 700.9173504 867.315712 700.9173504H956.145664C973.152256 700.9173504 986.988544 687.081472 986.988544 670.0736512V77.881344C986.988544 69.435392 983.638016 61.550592 977.559552 55.681024C971.788288 50.110464 964.268032 47.067136 956.268544 47.034368C956.227584 47.034368 956.186624 47.034368 956.145664 47.034368H955.936768C955.629568 47.038464 955.314176 47.046656 955.00288 47.054848C938.622976 47.640576 925.298688 61.997056 925.298688 79.065088V596.0495104C925.298688 633.4636032 894.861312 663.9054848 857.444352 663.9054848H826.601472V818.1215232C826.601472 855.535616 796.16 885.9774976 758.74304 885.9774976H265.2540928C227.837952 885.9774976 197.3981184 855.5393024 197.3981184 818.1215232V737.9296256H166.5540096C129.1378688 737.9296256 98.6980352 707.4914304 98.6980352 670.0736512V625.6594944C98.6980352 615.4375168 106.9838336 607.1533568 117.2041728 607.1533568C127.4241024 607.1533568 135.7099008 615.4375168 135.7099008 625.6594944V670.0736512C135.7099008 687.081472 149.5461888 700.9173504 166.5540096 700.9173504H197.3981184V589.881344H67.8559744C30.4379904 589.879296 0 559.4415104 0 522.027008V77.881344C0 40.464384 30.4379904 10.022912 67.8559744 10.022912H955.731968C955.88352 10.022912 956.030976 10.022912 956.182528 10.022912C973.856768 10.022912 990.49472 16.728064 1003.266048 29.052928C1016.635392 41.955328 1024 59.297792 1024 77.881344V670.0736512C1024 707.4893824 993.562624 737.9296256 956.145664 737.9296256zM234.409984 818.1215232C234.409984 835.129344 248.2458624 848.965632 265.2540928 848.965632H758.747136C775.757824 848.965632 789.590016 835.129344 789.590016 818.1215232V663.9054848H681.066496C643.784704 663.9054848 607.809536 648.2714624 582.365184 621.0134016C563.900416 601.229312 537.78432 589.881344 510.722048 589.881344H234.409984V818.1215232zM67.8559744 47.038464V47.038464C50.8481536 47.038464 37.01198848 60.874752 37.01198848 77.881344V522.027008C37.01198848 539.0336 50.8481536 552.8694784 67.8559744 552.8694784H510.722048C548.007936 552.8694784 583.979008 568.5035008 609.42336 595.7615616C627.888128 615.5472896 654.004224 626.8936192 681.066496 626.8936192H857.448448C874.45504 626.8936192 888.291328 613.0573312 888.291328 596.0495104V79.065088C888.291328 67.493888 891.04384 56.602624 895.930368 47.038464H67.8559744V47.038464z M709.390336 811.9517184H314.5961472C304.375808 811.9517184 296.0900096 803.667968 296.0900096 793.4459904C296.0900096 783.2240128 304.375808 774.9398528 314.5961472 774.9398528H709.390336C719.613952 774.9398528 727.896064 783.2240128 727.896064 793.4459904C727.896064 803.667968 719.613952 811.9517184 709.390336 811.9517184z M709.390336 737.931264H314.5961472C304.375808 737.931264 296.0900096 729.647104 296.0900096 719.4251264C296.0900096 709.2031488 304.375808 700.9193984 314.5961472 700.9193984H709.390336C719.613952 700.9193984 727.896064 709.2031488 727.896064 719.4251264C727.896064 729.647104 719.613952 737.931264 709.390336 737.931264z M518.168576 663.9026176H314.601472C304.193536 663.9026176 295.7914112 655.310848 296.1035264 644.8287744C296.4074496 634.6989568 305.2433408 626.890752 315.3772544 626.890752H518.168576C528.388096 626.890752 536.674304 635.17696 536.674304 645.3968896C536.674304 655.6168192 528.388096 663.9026176 518.168576 663.9026176z M573.689856 392.482816H555.184128V410.988544C555.184128 441.602048 530.280448 466.505728 499.666944 466.505728H474.99264C444.379136 466.505728 419.475456 441.602048 419.475456 410.988544V392.482816H400.9680896C370.354176 392.482816 345.4500864 367.57504 345.4500864 336.965632V312.291328C345.4500864 281.677824 370.354176 256.774144 400.9680896 256.774144H419.475456V238.268416C419.475456 207.654912 444.379136 182.747136 474.99264 182.747136H499.666944C547.004416 182.747136 555.184128 202.481664 555.184128 238.268416V256.774144H573.689856C604.30336 256.774144 629.20704 281.677824 629.20704 312.291328V336.965632C629.20704 367.579136 604.30336 392.482816 573.689856 392.482816zM474.99264 219.762688H499.666944C518.172672 219.762688 518.172672 224.997376 518.172672 238.268416V275.279872C518.172672 285.499392 526.45888 293.7856 536.6784 293.7856H573.689856C583.897088 293.7856 592.195584 302.084096 592.195584 312.291328V336.965632C592.195584 347.172864 583.897088 355.47136 573.689856 355.47136H536.6784C526.45888 355.47136 518.172672 363.753472 518.172672 373.977088V410.988544C518.172672 421.195776 509.874176 429.494272 499.666944 429.494272H474.99264C464.785408 429.494272 456.486912 421.195776 456.486912 410.988544V373.977088C456.486912 363.753472 448.200704 355.47136 437.981184 355.47136H400.9680896C390.7620864 355.47136 382.461952 347.172864 382.461952 336.965632V312.291328C382.461952 302.084096 390.7620864 293.7856 400.9680896 293.7856H437.981184C448.200704 293.7856 456.486912 285.499392 456.486912 275.279872V238.268416C456.486912 228.061184 464.785408 219.762688 474.99264 219.762688z" />
    <glyph glyph-name="edit"
      unicode="&#xF105;"
      horiz-adv-x="1024" d=" M791.282036364 466.627490909L335.136581818 10.482036364L9.318213818 -54.6816L74.481850182 271.136581818C122.988916364 322.372887273 530.627490909 727.282036364 530.627490909 727.282036364L791.282036364 466.627490909zM986.772945455 792.445672727L856.445672727 922.772759273H726.1184L595.791127273 792.445672727L856.445672727 531.791127273L986.772945455 662.1184V792.445672727z" />
    <glyph glyph-name="facebook"
      unicode="&#xF106;"
      horiz-adv-x="1024" d=" M928 960H96C43.2 960 0 916.8 0 864V32C0 -20.8 43.2 -64 96 -64H512V384H384V512H512V576C512 681.8 598.2 768 704 768H832V640H704C668.8 640 640 611.2 640 576V512H832L800 384H640V-64H928C980.8 -64 1024 -20.8 1024 32V864C1024 916.8 980.8 960 928 960z" />
    <glyph glyph-name="female"
      unicode="&#xF107;"
      horiz-adv-x="1024" d=" M822 650C822 820.934 682.934 960 512 960S202 820.934 202 650C202 492.618 319.892 362.258 472 342.576V162H322V82H472V-64H552V82H702V162H552V342.576C704.108 362.258 822 492.618 822 650zM512 420C385.178 420 282 523.178 282 650S385.178 880 512 880S742 776.822 742 650S638.822 420 512 420z" />
    <glyph glyph-name="gear"
      unicode="&#xF108;"
      horiz-adv-x="1024" d=" M899.710976 567.6466176L971.583488 555.4536448C1002.176512 550.31808 1024.421888 524.009472 1023.991808 492.990464V402.935808C1023.991808 371.9168 1001.746432 345.608192 971.157504 340.471808L899.284992 328.495104C892.010496 304.5376 882.171904 281.219072 870.404096 258.760704L912.760832 199.29088C930.729984 174.051328 927.731712 139.608064 905.916416 117.792768L842.170368 54.04672C830.189568 42.06592 814.358528 35.434496 797.462528 35.434496C784.19968 35.434496 771.362816 39.497728 760.66816 47.202304L701.415424 89.554944C679.170048 77.791232 655.85152 68.165632 631.681024 60.678144L619.487232 -11.198464C614.354944 -41.787392 588.04224 -64.032768 557.023232 -64.032768H466.755584C435.736576 -64.032768 409.4263296 -41.787392 404.2924032 -11.198464L392.3132416 60.678144C368.9971712 67.948544 346.3225344 77.14816 324.7173632 88.485888L264.6081536 45.703168C253.9126784 38.002688 241.2920832 33.939456 228.0296448 33.939456C211.130368 33.939456 195.3009664 40.57088 183.3222144 52.547584L119.576576 116.293632C97.5433728 138.113024 94.7625984 172.552192 112.7313408 197.79584L154.871808 256.405504C142.8926464 278.65088 133.0528256 301.969408 125.5661568 325.926912L52.8359424 338.333696C22.24676864 343.465984 0 369.778688 0 400.797696V490.852352C0 521.87136 22.24676864 548.179968 52.8359424 553.3147136L123.854848 565.2934656C131.1277056 589.4656 140.539904 612.78208 152.3048448 635.242496L109.5225344 695.3517056C91.5542016 720.5933056 94.5487872 755.0328832 116.3677696 776.8518656L180.3272192 840.597504C192.0925696 852.5766656 208.1357824 859.20768 225.0346496 859.20768C238.297088 859.20768 251.131904 855.1436288 261.8273792 847.4427392L320.6529024 805.0880512C342.8999168 817.0672128 366.2163968 826.9070336 390.1743104 834.394112L402.5810944 907.1239168C407.7150208 937.71321344 434.024448 959.96000002 465.043456 959.96000002H555.098112C586.11712 959.96000002 612.429824 937.71321344 617.562112 907.1239168L629.542912 836.1054208C654.569472 828.6183424 678.739968 818.5647104 701.841408 806.3717376L761.311232 848.726016C772.005888 856.4269056 784.625664 860.4913664 797.888512 860.4913664C814.788608 860.4913664 830.619648 853.8599424 842.596352 841.8807808L906.3424 778.135552C928.374784 756.3165696 931.155968 721.8765824 913.186816 696.6349824L870.834176 637.3818368C882.597888 615.1348224 892.223488 591.818752 899.710976 567.6466176zM291.1301632 448.110592C291.1301632 570.0390912 390.1710336 669.0799616 512.1024 669.0799616C634.028032 669.0799616 733.069312 570.0390912 733.069312 448.110592C733.069312 326.180864 634.028032 227.139584 512.1024 227.139584C390.1710336 227.139584 291.1301632 326.180864 291.1301632 448.110592z" />
    <glyph glyph-name="github"
      unicode="&#xF109;"
      horiz-adv-x="1024" d=" M512.008 947.358C229.27 947.358 0 718.14 0 435.36C0 209.146 146.704 17.228 350.136 -50.476C375.722 -55.214 385.128 -39.366 385.128 -25.844C385.128 -13.64 384.648 26.698 384.432 69.48C241.984 38.504 211.928 129.89 211.928 129.89C188.646 189.066 155.08 204.806 155.08 204.806C108.628 236.584 158.59 235.93 158.59 235.93C209.99 232.32 237.066 183.164 237.066 183.164C282.738 104.894 356.842 127.524 386.07 140.606C390.658 173.692 403.922 196.286 418.576 209.07C304.846 222.012 185.3 265.92 185.3 462.102C185.3 518 205.304 563.676 238.06 599.53C232.744 612.43 215.206 664.502 243.012 735.03C243.012 735.03 286.018 748.782 383.852 682.54C424.688 693.888 468.488 699.576 512.006 699.774C555.508 699.576 599.342 693.888 640.262 682.54C737.996 748.784 780.918 735.03 780.918 735.03C808.79 664.502 791.268 612.43 785.954 599.53C818.774 563.674 838.648 517.998 838.648 462.102C838.648 265.448 718.87 222.152 604.858 209.478C623.222 193.588 639.582 162.432 639.582 114.666C639.582 46.158 638.986 -8.978 638.986 -25.842C638.986 -39.47 648.208 -55.436 674.158 -50.408C877.48 17.368 1024 209.218 1024 435.36C1024 718.14 794.766 947.358 512.008 947.358z" />
    <glyph glyph-name="gitlab"
      unicode="&#xF10A;"
      horiz-adv-x="1024" d=" M1022.08 380.288L964.821 556.715L851.157 906.112C845.397 924.16 820.01 924.16 814.165 906.112L700.501 556.8H323.498L209.877 906.112C204.074 924.16 178.56 924.16 172.8 906.24L59.136 556.843L1.877 380.288C-3.286 364.288 2.474 346.624 16 336.64L512 -23.637L1008 336.598C1021.568 346.625 1027.328 364.203 1022.08 380.289z" />
    <glyph glyph-name="gmail"
      unicode="&#xF10B;"
      horiz-adv-x="1024" d=" M1024 768V128C1024 91.733 996.267 64 960 64H896V644.821L512 369.066L128 644.821V64H64C27.691 64 0 91.733 0 128V768C0 786.133 6.912 802.133 18.389 813.568C29.866 825.173 45.909 832 64 832H85.333L512 522.667L938.667 832H960C978.133 832 994.133 825.088 1005.611 813.568C1017.131 802.133 1024 786.133 1024 768z" />
    <glyph glyph-name="google"
      unicode="&#xF10C;"
      horiz-adv-x="1024" d=" M928 960H96C43.2 960 0 916.8 0 864V32C0 -20.8 43.2 -64 96 -64H928C980.8 -64 1024 -20.8 1024 32V864C1024 916.8 980.8 960 928 960zM519.6 64C307.4 64 135.6 235.8 135.6 448S307.4 832 519.6 832C623.2 832 710 794.2 776.8 731.6L672.6 631.2C644 658.6 594.2 690.4 519.6 690.4C388.4 690.4 281.6 581.8 281.6 448S388.6 205.6 519.6 205.6C671.6 205.6 728.6 314.8 737.4 371.2H519.6V502.8H882.2C885.4 483.6 888.2 464.4 888.2 439.2C888.4 219.8 741.4 64 519.6 64z" />
    <glyph glyph-name="history-blank"
      unicode="&#xF10D;"
      horiz-adv-x="1024" d=" M744.7424 657.4528C757.589333333 657.4528 768.014933333 667.880533333 768.014933333 680.727466667V797.090133333C768.014933333 835.584 736.6912 866.908373333 698.197333333 866.908373333H658.984533333C632.778666667 921.855146667 576.829866667 960 512.017066667 960H325.834666667C261.019733333 960 205.073493333 921.855146667 178.867626667 866.908373333H139.651626667C101.15776 866.908373333 69.833386667 835.584 69.833386667 797.090133333V5.815466667C69.833386667 -32.6784 101.15776 -64.002133333 139.651626667 -64.002133333H698.197333333C736.6912 -64.002133333 768.014933333 -32.6784 768.014933333 5.815466667V122.180266667C768.014933333 135.0272 757.589333333 145.454933333 744.7424 145.454933333C731.895466667 145.454933333 721.467733333 135.0272 721.467733333 122.180266667V5.8176C721.467733333 -7.003733333 711.0208 -17.454933333 698.1952 -17.454933333H139.651626667C126.829013333 -17.454933333 116.378026667 -7.005866667 116.378026667 5.8176V797.090133333C116.378026667 809.91488 126.829013333 820.36352 139.651626667 820.36352H164.786133333C163.693013333 812.729386667 162.925013333 805.00352 162.925013333 797.090133333V750.54528C162.925013333 737.698133333 173.351893333 727.272533333 186.1984 727.272533333H651.652266667C664.4992 727.272533333 674.926933333 737.698133333 674.926933333 750.54528V797.090133333C674.926933333 805.00352 674.158933333 812.729386667 673.064533333 820.36352H698.197333333C711.0208 820.36352 721.469866667 809.91488 721.469866667 797.090133333V680.727466667C721.469866667 667.880533333 731.895466667 657.4528 744.7424 657.4528zM628.379733333 773.818666667H209.469866667V797.090133333C209.469866667 861.25312 261.6704 913.453013333 325.832533333 913.453013333H512.014933333C576.177066667 913.453013333 628.3776 861.25312 628.3776 797.090133333V773.818666667H628.379733333z M418.8992 820.369706667C431.752533333 820.369706667 442.171733333 830.78976 442.171733333 843.643306667C442.171733333 856.496853333 431.752533333 866.916693333 418.8992 866.916693333C406.045866667 866.916693333 395.624533333 856.496853333 395.624533333 843.643306667C395.624533333 830.78976 406.045866667 820.369706667 418.8992 820.369706667z M605.0944 657.4592H232.731733333C219.8848 657.4592 209.458346667 647.031466667 209.458346667 634.184533333C209.458346667 621.3376 219.8848 610.914133333 232.731733333 610.914133333H605.096533333C617.943466667 610.914133333 628.369066667 621.339733333 628.369066667 634.186666667C628.369066667 647.0336 617.941333333 657.4592 605.0944 657.4592z M488.731733333 541.083733333H232.731733333C219.8848 541.083733333 209.458346667 530.658133333 209.458346667 517.8112C209.458346667 504.964266667 219.8848 494.538666667 232.731733333 494.538666667H488.731733333C501.578666667 494.538666667 512.004266667 504.964266667 512.004266667 517.8112C512.004266667 530.658133333 501.578666667 541.083733333 488.731733333 541.083733333z M465.457066667 424.7296H232.731733333C219.8848 424.7296 209.458346667 414.304 209.458346667 401.457066667C209.458346667 388.610133333 219.8848 378.184533333 232.731733333 378.184533333H465.4592C478.306133333 378.184533333 488.733866667 388.610133333 488.733866667 401.457066667C488.731733333 414.304 478.304 424.7296 465.457066667 424.7296z M605.079466667 192H418.8992C406.052266667 192 395.624533333 181.572266667 395.624533333 168.727466667C395.624533333 155.880533333 406.052266667 145.4528 418.8992 145.4528H605.079466667C617.9264 145.4528 628.352 155.880533333 628.352 168.727466667C628.352 181.572266667 617.9264 192 605.079466667 192z M325.821866667 192H232.7296C219.8848 192 209.458346667 181.572266667 209.458346667 168.727466667C209.458346667 155.880533333 219.8848 145.4528 232.731733333 145.4528H325.824C338.670933333 145.4528 349.096533333 155.880533333 349.096533333 168.727466667C349.0944 181.572266667 338.6688 192 325.821866667 192z M488.731733333 308.375466667H232.731733333C219.8848 308.375466667 209.458346667 297.947733333 209.458346667 285.102933333C209.458346667 272.256 219.8848 261.8304 232.731733333 261.8304H488.731733333C501.578666667 261.8304 512.004266667 272.258133333 512.004266667 285.105066667C512.004266667 297.952 501.578666667 308.375466667 488.731733333 308.375466667z M744.704 610.916266667C629.224533333 610.916266667 535.249066667 516.9408 535.249066667 401.461333333C535.249066667 285.981866667 629.224533333 192.0064 744.704 192.0064C860.183466667 192.0064 954.158933333 285.981866667 954.158933333 401.461333333C954.158933333 516.9408 860.183466667 610.916266667 744.704 610.916266667zM744.704 238.551466667C654.871466667 238.551466667 581.794133333 311.626666667 581.794133333 401.461333333C581.794133333 491.293866667 654.869333333 564.3712 744.704 564.3712C834.538666667 564.3712 907.613866667 491.291733333 907.613866667 401.461333333C907.613866667 311.6288 834.538666667 238.551466667 744.704 238.551466667z M826.5472 491.2C815.515733333 497.809066667 801.226666667 494.248533333 794.615466667 483.217066667L740.1344 392.407466667L691.400533333 441.141333333C682.299733333 450.24 667.592533333 450.24 658.491733333 441.141333333C649.390933333 432.040533333 649.390933333 417.333333333 658.491733333 408.232533333L728.309333333 338.414933333C732.663466667 334.039466667 738.5984 331.618133333 744.7424 331.618133333C745.693866667 331.618133333 746.6496 331.662933333 747.579733333 331.780266667C754.7008 332.6656 761.009066667 336.7616 764.6848 342.9056L834.504533333 459.268266667C841.1392 470.301866667 837.553066667 484.590933333 826.5472 491.2z" />
    <glyph glyph-name="instagram"
      unicode="&#xF10E;"
      horiz-adv-x="1024" d=" M512 867.8C648.8 867.8 665 867.2 718.8 864.8C768.8 862.6 795.8 854.2 813.8 847.2C837.6 838 854.8 826.8 872.6 809C890.6 791 901.6 774 911 750.2C918 732.2 926.4 705 928.6 655.2C931 601.2 931.6 585 931.6 448.4S931 295.4 928.6 241.6C926.4 191.6 918 164.6 911 146.6C901.8 122.8 890.6 105.6 872.8 87.8C854.8 69.8 837.8 58.8 814 49.4C796 42.4 768.8 34 719 31.8C665 29.4 648.8 28.8 512.2 28.8S359.2 29.4 305.4 31.8C255.4 34 228.4 42.4 210.4 49.4C186.6 58.6 169.4 69.8 151.6 87.6C133.6 105.6 122.6 122.6 113.2 146.4C106.2 164.4 97.8 191.6 95.6 241.4C93.2 295.4 92.6 311.6 92.6 448.2S93.2 601.2 95.6 655C97.8 705 106.2 732 113.2 750C122.4 773.8 133.6 791 151.4 808.8C169.4 826.8 186.4 837.8 210.2 847.2C228.2 854.2 255.4 862.6 305.2 864.8C359 867.2 375.2 867.8 512 867.8zM512 960C373 960 355.6 959.4 301 957C246.6 954.6 209.2 945.8 176.8 933.2C143 920 114.4 902.6 86 874C57.4 845.6 40 817 26.8 783.4C14.2 750.8 5.4 713.6 3 659.2C0.6 604.4 0 587 0 448S0.6 291.6 3 237C5.4 182.6 14.2 145.2 26.8 112.8C40 79 57.4 50.4 86 22C114.4 -6.4 143 -24 176.6 -37C209.2 -49.6 246.4 -58.4 300.8 -60.8C355.4 -63.2 372.8 -63.8 511.8 -63.8S668.2 -63.2 722.8 -60.8C777.2 -58.4 814.6 -49.6 847 -37C880.6 -24 909.2 -6.4 937.6 22S983.6 79 996.6 112.6C1009.2 145.2 1018 182.4 1020.4 236.8C1022.8 291.4 1023.4 308.8 1023.4 447.8S1022.8 604.2 1020.4 658.8C1018 713.2 1009.2 750.6 996.6 783C984 817 966.6 845.6 938 874C909.6 902.4 881 920 847.4 933C814.8 945.6 777.6 954.4 723.2 956.8C668.4 959.4 651 960 512 960V960z M512 711C366.8 711 249 593.2 249 448S366.8 185 512 185S775 302.8 775 448C775 593.2 657.2 711 512 711zM512 277.4C417.8 277.4 341.4 353.8 341.4 448S417.8 618.6 512 618.6C606.2 618.6 682.6 542.2 682.6 448S606.2 277.4 512 277.4z M846.8 721.4C846.8 687.49 819.31 660 785.4 660S724 687.49 724 721.4C724 755.31 751.49 782.8 785.4 782.8S846.8 755.31 846.8 721.4z" />
    <glyph glyph-name="lay"
      unicode="&#xF10F;"
      horiz-adv-x="1654" d=" M96.923 254.358H487.845V448.201H96.923V932.817H0V-36.415H96.923V254.358z M1460.307 254.358H1557.233V-36.415H1654.155V448.201H1460.308V254.358z M342.461 545.126H487.845V690.509C487.845 770.799 422.75 835.894 342.461 835.894S197.077 770.799 197.077 690.509C197.077 610.207 262.172 545.126 342.461 545.126z M1363.385 496.664C1363.385 630.488 1254.9 738.972 1121.075 738.972H584.771V254.358H1363.385V496.664z" />
    <glyph glyph-name="linkedin"
      unicode="&#xF110;"
      horiz-adv-x="1024" d=" M928 960H96C43.2 960 0 916.8 0 864V32C0 -20.8 43.2 -64 96 -64H928C980.8 -64 1024 -20.8 1024 32V864C1024 916.8 980.8 960 928 960zM384 128H256V576H384V128zM320 640C284.6 640 256 668.6 256 704S284.6 768 320 768C355.4 768 384 739.4 384 704S355.4 640 320 640zM832 128H704V384C704 419.4 675.4 448 640 448S576 419.4 576 384V128H448V576H576V496.6C602.4 532.8 642.8 576 688 576C767.6 576 832 504.4 832 416V128z" />
    <glyph glyph-name="male"
      unicode="&#xF111;"
      horiz-adv-x="1024" d=" M643.742 960V880.156H886.7L549.168 542.624C491.544 587.744 419.028 614.676 340.336 614.676C153.226 614.676 0.998 462.45 0.998 275.338S153.224 -64 340.336 -64S679.674 88.226 679.674 275.338C679.674 355.048 652.034 428.414 605.852 486.392L943.158 823.698V580.74H1023.002V960H643.742zM340.336 15.844C197.252 15.844 80.842 132.252 80.842 275.338S197.25 534.832 340.336 534.832C401.962 534.832 458.626 513.224 503.188 477.206L542.204 438.19C578.222 393.63 599.83 336.964 599.83 275.338C599.828 132.252 483.42 15.844 340.336 15.844z" />
    <glyph glyph-name="medium"
      unicode="&#xF112;"
      horiz-adv-x="1024" d=" M0 960V-64H1024V960H0zM850.688 717.397L795.776 664.746C791.914 661.786 789.449 657.171 789.449 651.98C789.449 651.033 789.531 650.106 789.688 649.205L789.674 649.301V262.442C789.535 261.648 789.455 260.733 789.455 259.8C789.455 254.612 791.917 250 795.737 247.067L795.775 247.039L849.407 194.388V182.825H579.668V194.345L635.22 248.318C640.681 253.779 640.681 255.358 640.681 263.678V576.425L486.228 184.105H465.321L285.438 576.425V313.47C285.228 312.005 285.109 310.313 285.109 308.593C285.109 298.754 289.027 289.831 295.388 283.297L295.38 283.305L367.657 195.668V184.105H162.772V195.625L235.092 283.305C241.155 289.588 244.891 298.152 244.891 307.588C244.891 309.666 244.71 311.702 244.362 313.68L244.393 313.47V617.513C244.481 618.325 244.531 619.268 244.531 620.221C244.531 628.059 241.144 635.105 235.755 639.977L235.732 639.998L171.476 717.395V728.915H370.9L525.055 390.867L660.564 728.958H850.687V717.395z" />
    <glyph glyph-name="telegram"
      unicode="&#xF113;"
      horiz-adv-x="1024" d=" M512 960C229.2 960 0 730.8 0 448S229.2 -64 512 -64S1024 165.2 1024 448S794.8 960 512 960zM763.6 609L679.6 213.2C673.8 185 656.8 178.4 633.2 191.4L505.2 286L443.8 226.2C436.6 219.2 431 213.4 418.2 213.4C401.6 213.4 404.4 219.6 398.8 235.4L355.2 378.6L228.6 418C201.2 426.4 201 445.2 234.8 458.6L728 649C750.4 659.2 772.2 643.6 763.6 609z" />
    <glyph glyph-name="vk"
      unicode="&#xF114;"
      horiz-adv-x="1024" d=" M928 960H96C43.2 960 0 916.8 0 864V32C0 -20.8 43.2 -64 96 -64H928C980.8 -64 1024 -20.8 1024 32V864C1024 916.8 980.8 960 928 960zM829.4 243.2L735.8 241.8C735.8 241.8 715.6 237.8 689.2 256C654.2 280 621.2 342.6 595.4 334.4C569.4 326.2 570.2 270 570.2 270S570.4 258 564.4 251.6C558 244.6 545.2 243.2 545.2 243.2H503.4C503.4 243.2 411 237.6 329.6 322.4C240.8 414.8 162.4 598.2 162.4 598.2S157.8 610.2 162.8 616C168.4 622.6 183.4 623 183.4 623L283.6 623.6C283.6 623.6 293 622 299.8 617C305.4 613 308.4 605.2 308.4 605.2S324.6 564.2 346 527.2C387.8 455 407.4 439.2 421.6 446.8C442.2 458 436 549 436 549S436.4 582 425.6 596.6C417.2 608 401.4 611.4 394.6 612.2C389 613 398.2 626 410.2 632C428.2 640.8 460 641.4 497.6 641C526.8 640.8 535.4 638.8 546.8 636.2C581.4 627.8 569.6 595.6 569.6 518.4C569.6 493.6 565.2 458.8 583 447.4C590.6 442.4 609.4 446.6 656.4 526.4C678.6 564.2 695.4 608.6 695.4 608.6S699 616.6 704.6 620C710.4 623.4 718.2 622.4 718.2 622.4L823.6 623C823.6 623 855.2 626.8 860.4 612.4C865.8 597.4 848.6 562.4 805.6 505C735 410.8 727 419.6 785.8 365.2C841.8 313.2 853.4 287.8 855.4 284.6C878.2 246.2 829.4 243.2 829.4 243.2z" />
  </font>
</defs>
</svg>
